<svg width="36" height="33" viewBox="0 0 36 33" fill="none" xmlns="http://www.w3.org/2000/svg">
<g id="Grupo 2097">
<path id="Trazado 521" d="M33.6478 32.1544H2.6123C2.28033 32.1544 2.01123 31.8853 2.01123 31.5533V28.9016C2.01123 28.5697 2.28033 28.3005 2.6123 28.3005H33.6478C33.9798 28.3005 34.2481 28.5697 34.2481 28.9016V31.5533C34.2481 31.8853 33.9798 32.1544 33.6478 32.1544ZM3.2134 30.9531H33.0467V29.5027H3.2134V30.9531Z" fill="#CCBD99"/>
<path id="Trazado 522" d="M31.9786 29.5027H4.28225C3.95025 29.5027 3.68115 29.2336 3.68115 28.9016V26.2499C3.68115 25.9179 3.95025 25.6488 4.28225 25.6488H31.9786C32.3106 25.6488 32.5789 25.9179 32.5789 26.2499V28.9016C32.5789 29.2336 32.3106 29.5027 31.9786 29.5027ZM4.88252 28.3005H31.3775V26.851H4.88252V28.3005Z" fill="#CCBD99"/>
<path id="Trazado 523" d="M34.8491 32.1543H1.41091C1.07893 32.1543 0.809814 31.8852 0.809814 31.5533C0.809814 31.2221 1.07893 30.953 1.41091 30.953H34.8491C35.1811 30.953 35.4502 31.2221 35.4502 31.5533C35.4502 31.8852 35.1811 32.1543 34.8491 32.1543Z" fill="#CCBD99"/>
<path id="Trazado 524" d="M11.071 26.851H7.36308C7.03108 26.851 6.76196 26.5819 6.76196 26.2499V11.9075C6.76196 11.5755 7.03108 11.3073 7.36308 11.3073H11.071C11.4022 11.3073 11.6713 11.5755 11.6713 11.9075V26.2499C11.6713 26.5819 11.4022 26.851 11.071 26.851ZM7.96331 25.6488H10.47V12.5086H7.96331V25.6488Z" fill="#CCBD99"/>
<path id="Trazado 525" d="M19.9844 26.851H16.2764C15.9444 26.851 15.6753 26.5819 15.6753 26.2499V11.9075C15.6753 11.5755 15.9444 11.3073 16.2764 11.3073H19.9844C20.3155 11.3073 20.5846 11.5755 20.5846 11.9075V26.2499C20.5846 26.5819 20.3155 26.851 19.9844 26.851ZM16.8767 25.6488H19.3833V12.5086H16.8767V25.6488Z" fill="#CCBD99"/>
<path id="Trazado 526" d="M28.8968 26.851H25.1897C24.8577 26.851 24.5886 26.5819 24.5886 26.2499V11.9075C24.5886 11.5755 24.8577 11.3073 25.1897 11.3073H28.8968C29.2289 11.3073 29.498 11.5755 29.498 11.9075V26.2499C29.498 26.5819 29.2289 26.851 28.8968 26.851ZM25.79 25.6488H28.2966V12.5086H25.79V25.6488Z" fill="#CCBD99"/>
<path id="Trazado 527" d="M34.8491 9.85701H19.7891C19.5409 9.85701 19.3179 9.7036 19.2282 9.47222C19.1385 9.24082 19.2014 8.97759 19.385 8.81077C19.7883 8.44608 20.0096 7.95313 20.0096 7.42329C20.0096 6.38711 19.1662 5.54374 18.13 5.54374C17.0938 5.54374 16.2504 6.38711 16.2504 7.42329C16.2504 7.95313 16.4718 8.44608 16.8742 8.81077C17.0586 8.97678 17.1215 9.24001 17.0318 9.47222C16.9429 9.7036 16.7199 9.85701 16.4718 9.85701H1.4109C1.13343 9.85701 0.891957 9.66673 0.826589 9.39761C0.76118 9.12849 0.888604 8.84933 1.13509 8.72191L17.8542 0.0961873C18.0277 0.00732559 18.2331 0.00732559 18.4058 0.0961873L35.1249 8.72191C35.3714 8.84933 35.498 9.12849 35.4326 9.39761C35.368 9.66673 35.1266 9.85701 34.8491 9.85701ZM20.9485 8.65482H32.3743L18.13 1.30592L3.88569 8.65482H15.3115C15.1396 8.26919 15.0491 7.85001 15.0491 7.42329C15.0491 5.72482 16.4307 4.34241 18.13 4.34241C19.8285 4.34241 21.2109 5.72482 21.2109 7.42329C21.2109 7.85001 21.1204 8.26919 20.9485 8.65482Z" fill="#CCBD99"/>
<path id="Trazado 528" d="M31.9786 12.5087H4.28225C3.95025 12.5087 3.68115 12.2396 3.68115 11.9076V9.25589C3.68115 8.92391 3.95025 8.65479 4.28225 8.65479H16.4718C16.6202 8.65479 16.7644 8.71012 16.8742 8.81073C17.5759 9.44535 18.6842 9.44535 19.3859 8.81073C19.4957 8.71012 19.6399 8.65479 19.7891 8.65479H31.9786C32.3106 8.65479 32.5789 8.92391 32.5789 9.25589V11.9076C32.5789 12.2396 32.3106 12.5087 31.9786 12.5087ZM4.88252 11.3073H31.3775V9.85697H20.0071C18.9256 10.6945 17.3353 10.6945 16.2538 9.85697H4.88252V11.3073Z" fill="#CCBD99"/>
<path id="Trazado 529" d="M16.2763 15.7531H11.071C10.7391 15.7531 10.47 15.484 10.47 15.152C10.47 14.82 10.7391 14.5518 11.071 14.5518H16.2763C16.6075 14.5518 16.8766 14.82 16.8766 15.152C16.8766 15.484 16.6075 15.7531 16.2763 15.7531Z" fill="#CCBD99"/>
<path id="Trazado 530" d="M25.1897 15.7531H19.9844C19.6524 15.7531 19.3833 15.484 19.3833 15.152C19.3833 14.82 19.6524 14.5518 19.9844 14.5518H25.1897C25.5217 14.5518 25.7899 14.82 25.7899 15.152C25.7899 15.484 25.5217 15.7531 25.1897 15.7531Z" fill="#CCBD99"/>
</g>
</svg>
