<svg width="37" height="38" viewBox="0 0 37 38" fill="none" xmlns="http://www.w3.org/2000/svg">
<g id="Grupo 2099">
<path id="Trazado 505" d="M18.1312 7.84628C16.1669 7.84628 14.5657 6.1763 14.5581 4.11649C14.5506 2.05333 16.1459 0.368268 18.1161 0.360718C20.0929 0.360718 21.6941 2.0307 21.7017 4.08966C21.7092 6.15367 20.113 7.83874 18.1437 7.84628H18.1312ZM18.1286 1.56206C16.8133 1.56709 15.7544 2.7106 15.7595 4.1123C15.7645 5.51066 16.8275 6.64494 18.1312 6.64494C19.4465 6.63991 20.5053 5.49557 20.5003 4.0947C20.4944 2.69635 19.4323 1.56206 18.1286 1.56206Z" fill="#CCBD99"/>
<path id="Trazado 506" d="M18.2401 32.4844C17.9089 32.4844 17.6407 32.217 17.639 31.8859L17.5979 22.6976C17.5971 22.3665 17.8645 22.0957 18.1965 22.0948C18.5293 22.0948 18.7984 22.3614 18.8001 22.6926L18.8403 31.8808C18.842 32.212 18.5746 32.4828 18.2426 32.4844H18.2401Z" fill="#CCBD99"/>
<path id="Trazado 507" d="M14.9203 32.4961C14.59 32.4961 14.3209 32.2296 14.3192 31.8976L14.2463 13.8506C9.01754 12.982 5.92824 11.5057 4.5433 9.22205C3.90364 8.16826 4.20629 6.80427 5.23158 6.11767C6.12777 5.51742 7.36684 5.65825 8.17836 6.45049C10.846 9.05523 13.4515 9.21367 14.45 9.16086C14.8055 9.14241 15.1609 9.12565 15.5164 9.12397L20.7803 9.10469C21.135 9.10637 21.4921 9.11725 21.8476 9.13319C22.8452 9.17678 25.4499 9.00157 28.0982 6.37672C28.9039 5.57694 30.1421 5.42772 31.0425 6.02126C32.0728 6.70116 32.3855 8.06263 31.7543 9.12061C30.3861 11.4143 27.3077 12.9141 22.0865 13.8212L22.1603 31.8682C22.1611 32.0275 22.0982 32.1809 21.9859 32.2941C21.8735 32.4073 21.721 32.471 21.5617 32.4718L14.9228 32.4961H14.9203ZM6.47316 6.94679C6.26945 6.94679 6.07076 7.00212 5.90058 7.11613C5.41014 7.44393 5.26511 8.09616 5.57027 8.59916C6.78504 10.6011 9.84834 11.9576 14.9362 12.7448C15.2288 12.79 15.4443 13.0407 15.4451 13.3366L15.5189 31.2923L20.9564 31.2722L20.8826 13.3157C20.8818 13.0206 21.0956 12.7683 21.3873 12.7205C26.4694 11.8955 29.5226 10.5165 30.7223 8.50526C31.0232 7.99975 30.874 7.3492 30.3811 7.02476C29.9527 6.74307 29.3482 6.82942 28.9441 7.23016C25.958 10.1895 22.9466 10.3874 21.7922 10.3337C21.4569 10.3186 21.1241 10.3069 20.7845 10.306L15.5206 10.3261C15.1852 10.327 14.8491 10.3429 14.5129 10.3605C13.3602 10.4242 10.3463 10.2465 7.33917 7.31063C7.09439 7.0717 6.77833 6.94679 6.47316 6.94679Z" fill="#CCBD99"/>
<path id="Trazado 508" d="M31.0148 13.1479C30.6837 13.1479 30.4146 12.8797 30.4146 12.5477V9.24294C30.4146 8.91096 30.6837 8.64185 31.0148 8.64185C31.3468 8.64185 31.6159 8.91096 31.6159 9.24294V12.5477C31.6159 12.8797 31.3468 13.1479 31.0148 13.1479Z" fill="#CCBD99"/>
<path id="Trazado 509" d="M33.5759 20.4952H28.4544C28.26 20.4952 28.078 20.4013 27.9649 20.2428C27.8525 20.0844 27.8232 19.8815 27.8869 19.6979L30.4472 12.3087C30.531 12.0665 30.7591 11.9047 31.0148 11.9047C31.2713 11.9047 31.4993 12.0665 31.5832 12.3087L34.1435 19.6979C34.2072 19.8815 34.1778 20.0844 34.0655 20.2428C33.9523 20.4013 33.7704 20.4952 33.5759 20.4952ZM29.2987 19.2938H32.7317L31.0148 14.3401L29.2987 19.2938Z" fill="#CCBD99"/>
<path id="Trazado 510" d="M34.5452 23.4756H27.4855C26.5952 23.4756 25.8708 22.7504 25.8708 21.8601V20.9086C25.8708 20.0183 26.5952 19.2939 27.4855 19.2939H34.5452C35.4355 19.2939 36.1598 20.0183 36.1598 20.9086V21.8601C36.1598 22.7504 35.4355 23.4756 34.5452 23.4756ZM27.4855 20.4953C27.2575 20.4953 27.0722 20.6806 27.0722 20.9086V21.8601C27.0722 22.0881 27.2575 22.2734 27.4855 22.2734H34.5452C34.7732 22.2734 34.9585 22.0881 34.9585 21.8601V20.9086C34.9585 20.6806 34.7732 20.4953 34.5452 20.4953H27.4855Z" fill="#CCBD99"/>
<path id="Trazado 511" d="M32.4669 25.5529H29.5638C28.0866 25.5529 26.8853 24.3516 26.8853 22.8744C26.8853 22.5424 27.1544 22.2733 27.4855 22.2733H34.5452C34.8772 22.2733 35.1455 22.5424 35.1455 22.8744C35.1455 24.3516 33.9441 25.5529 32.4669 25.5529ZM28.214 23.4755C28.4454 23.9911 28.9627 24.3516 29.5638 24.3516H32.4669C33.068 24.3516 33.5861 23.9911 33.8167 23.4755H28.214Z" fill="#CCBD99"/>
<path id="Trazado 512" d="M5.24406 13.1479C4.91207 13.1479 4.6438 12.8797 4.6438 12.5477V9.24294C4.6438 8.91096 4.91207 8.64185 5.24406 8.64185C5.57604 8.64185 5.84515 8.91096 5.84515 9.24294V12.5477C5.84515 12.8797 5.57604 13.1479 5.24406 13.1479Z" fill="#CCBD99"/>
<path id="Trazado 513" d="M7.80535 20.4952H2.68391C2.48941 20.4952 2.30749 20.4013 2.19431 20.2428C2.08113 20.0844 2.05263 19.8815 2.11634 19.6979L4.67665 12.3087C4.76047 12.0665 4.98851 11.9047 5.2442 11.9047C5.50074 11.9047 5.72792 12.0665 5.81177 12.3087L8.3729 19.6979C8.43662 19.8815 8.40728 20.0844 8.2941 20.2428C8.18176 20.4013 7.99901 20.4952 7.80535 20.4952ZM3.52812 19.2938H6.96113L5.2442 14.3401L3.52812 19.2938Z" fill="#CCBD99"/>
<path id="Trazado 514" d="M8.77361 23.4756H1.71475C0.824425 23.4756 0.100098 22.7504 0.100098 21.8601V20.9086C0.100098 20.0183 0.824425 19.2939 1.71475 19.2939H8.77361C9.66393 19.2939 10.3891 20.0183 10.3891 20.9086V21.8601C10.3891 22.7504 9.66393 23.4756 8.77361 23.4756ZM1.71475 20.4953C1.48672 20.4953 1.30144 20.6806 1.30144 20.9086V21.8601C1.30144 22.0881 1.48672 22.2734 1.71475 22.2734H8.77361C9.00164 22.2734 9.18691 22.0881 9.18691 21.8601V20.9086C9.18691 20.6806 9.00164 20.4953 8.77361 20.4953H1.71475Z" fill="#CCBD99"/>
<path id="Trazado 515" d="M6.69621 25.5529H3.79301C2.31585 25.5529 1.1145 24.3516 1.1145 22.8744C1.1145 22.5424 1.38277 22.2733 1.71476 22.2733H8.77362C9.1056 22.2733 9.37471 22.5424 9.37471 22.8744C9.37471 24.3516 8.17336 25.5529 6.69621 25.5529ZM2.44328 23.4755C2.67382 23.9911 3.19193 24.3516 3.79301 24.3516H6.69621C7.29645 24.3516 7.81455 23.9911 8.04509 23.4755H2.44328Z" fill="#CCBD99"/>
<path id="Trazado 516" d="M30.4498 37.2244H5.9484C5.61642 37.2244 5.34814 36.9553 5.34814 36.6233V36.1698C5.34814 34.8821 6.39523 33.8341 7.68377 33.8341H11.1864C11.3163 32.4056 12.5202 31.2822 13.9822 31.2822H22.416C23.8781 31.2822 25.0819 32.4056 25.2119 33.8341H28.7145C30.003 33.8341 31.0501 34.8821 31.0501 36.1698V36.6233C31.0501 36.9553 30.781 37.2244 30.4498 37.2244ZM6.55871 36.0231H29.8395C29.7666 35.4664 29.2904 35.0355 28.7145 35.0355H24.6225C24.2905 35.0355 24.0223 34.7672 24.0223 34.4352V34.0898C24.0223 33.2046 23.3013 32.4844 22.416 32.4844H13.9822C13.097 32.4844 12.376 33.2046 12.376 34.0898V34.4352C12.376 34.7672 12.1069 35.0355 11.7757 35.0355H7.68377C7.10782 35.0355 6.63081 35.4664 6.55871 36.0231Z" fill="#CCBD99"/>
<path id="Trazado 517" d="M34.9692 37.2244H1.42789C1.09591 37.2244 0.827637 36.9561 0.827637 36.6242C0.827637 36.2922 1.09591 36.0231 1.42789 36.0231H34.9692C35.3012 36.0231 35.5703 36.2922 35.5703 36.6242C35.5703 36.9561 35.3012 37.2244 34.9692 37.2244Z" fill="#CCBD99"/>
<path id="Trazado 518" d="M21.98 35.0354H11.7757C11.4437 35.0354 11.1746 34.7672 11.1746 34.4352C11.1746 34.1032 11.4437 33.8341 11.7757 33.8341H21.98C22.312 33.8341 22.5802 34.1032 22.5802 34.4352C22.5802 34.7672 22.312 35.0354 21.98 35.0354Z" fill="#CCBD99"/>
<path id="Trazado 519" d="M30.8204 10.0126C30.8028 10.0126 30.7844 10.0117 30.7659 10.0101C28.3364 9.79126 27.654 7.36426 27.6263 7.26114C27.54 6.94089 27.7295 6.61059 28.0497 6.52423C28.3683 6.43788 28.6986 6.62651 28.7858 6.94508C28.8067 7.02053 29.2888 8.6704 30.8741 8.81375C31.2044 8.84309 31.4483 9.13484 31.4182 9.46598C31.3905 9.77784 31.1281 10.0126 30.8204 10.0126Z" fill="#CCBD99"/>
<path id="Trazado 520" d="M5.46794 10.0126C5.16026 10.0126 4.89869 9.77784 4.8702 9.46598C4.84002 9.13484 5.08397 8.84309 5.41428 8.81374C7.0021 8.67039 7.48331 7.0155 7.5026 6.94508C7.59146 6.62651 7.92093 6.43788 8.24117 6.52591C8.55975 6.61394 8.74838 6.94172 8.66202 7.26114C8.63436 7.36426 7.95195 9.79125 5.52243 10.0101C5.50398 10.0117 5.48554 10.0126 5.46794 10.0126Z" fill="#CCBD99"/>
</g>
</svg>
