<svg width="37" height="35" viewBox="0 0 37 35" fill="none" xmlns="http://www.w3.org/2000/svg">
<g id="icon procesal">
<path id="Trazado 305" d="M22.1779 24.6774C22.0265 24.6774 21.8768 24.62 21.7628 24.5085C20.3187 23.1059 18.971 21.3373 17.8654 19.3957C16.759 17.4524 15.9263 15.391 15.4563 13.4344C15.3947 13.1765 15.5111 12.9086 15.7416 12.7772L24.9656 7.5246C25.196 7.39398 25.4856 7.43058 25.6761 7.61527C27.1194 9.01785 28.467 10.7856 29.5735 12.7281C30.6799 14.6714 31.5126 16.7328 31.9818 18.6894C32.0442 18.9473 31.9277 19.2152 31.6973 19.3466L22.4724 24.5992C22.3801 24.6516 22.2786 24.6774 22.1779 24.6774ZM16.7257 13.5891C17.1841 15.3078 17.9319 17.1022 18.9011 18.8051C19.8711 20.508 21.0325 22.0661 22.2769 23.3381L30.7132 18.5347C30.2548 16.816 29.5069 15.0216 28.5369 13.3179C27.5669 11.6158 26.4056 10.0569 25.1611 8.78574L16.7257 13.5891Z" fill="#CCBD99"/>
<path id="Trazado 306" d="M24.9539 31.489C24.7284 31.489 24.5013 31.459 24.2776 31.3975C23.6237 31.2178 23.0788 30.7943 22.7435 30.2054L20.9325 27.0267C20.2395 25.8096 20.6663 24.2557 21.8825 23.5627L31.1074 18.3101C32.3236 17.6172 33.8776 18.0431 34.5706 19.2601L36.3808 22.4388C36.716 23.0286 36.8026 23.7133 36.6237 24.368C36.444 25.0218 36.0197 25.5667 35.4308 25.9028L26.2059 31.1554C25.8183 31.3767 25.389 31.489 24.9539 31.489ZM32.3619 19.1703C32.1356 19.1703 31.9069 19.2269 31.6972 19.3467L22.4724 24.5992C21.8276 24.9669 21.6014 25.7914 21.969 26.4361L23.7793 29.6147C23.9573 29.9275 24.2459 30.1521 24.5929 30.2478C24.9414 30.3435 25.3033 30.2977 25.6161 30.1189L34.8409 24.8663C35.1537 24.6883 35.3783 24.3988 35.4732 24.0519C35.568 23.705 35.5231 23.3414 35.3451 23.0286L33.5349 19.85C33.287 19.4149 32.8303 19.1703 32.3619 19.1703Z" fill="#CCBD99"/>
<path id="Trazado 307" d="M15.0786 14.1473C14.8531 14.1473 14.626 14.1173 14.4023 14.0558C13.7484 13.8761 13.2035 13.4527 12.8683 12.8637L11.0572 9.68502C10.3643 8.46796 10.7911 6.91399 12.0081 6.22103L21.2321 0.968454C22.4484 0.275482 24.0032 0.701419 24.6953 1.91847L26.5055 5.09713C27.1984 6.3142 26.7725 7.86818 25.5563 8.5603L16.3314 13.8137C15.943 14.035 15.5137 14.1473 15.0786 14.1473ZM22.4866 1.82781C22.2603 1.82781 22.0316 1.88521 21.8219 2.00417L12.5979 7.25756C11.9523 7.62443 11.7261 8.44885 12.093 9.09437L13.904 12.273C14.082 12.5858 14.3706 12.8113 14.7176 12.9061C15.0661 13.001 15.428 12.956 15.7416 12.7772L24.9657 7.52461C25.6112 7.1569 25.8366 6.33334 25.4698 5.6878L23.6596 2.50828C23.4108 2.07238 22.955 1.82781 22.4866 1.82781Z" fill="#CCBD99"/>
<path id="Trazado 308" d="M3.27066 30.376C3.04523 30.376 2.81813 30.3469 2.5935 30.2887C1.8922 30.1056 1.30824 29.6581 0.949681 29.0283C0.590308 28.3986 0.503798 27.6674 0.704279 26.9711C0.905598 26.2748 1.36812 25.7024 2.007 25.3605L14.9288 18.4408C15.1293 18.3335 15.3747 18.3502 15.5602 18.4841C15.7441 18.618 15.8364 18.8451 15.7973 19.0698C15.715 19.5389 15.799 20.0248 16.0344 20.4382C16.2698 20.8517 16.645 21.1719 17.0892 21.34C17.3031 21.4207 17.4519 21.6162 17.4727 21.8433C17.4935 22.0704 17.3821 22.29 17.1874 22.4081L4.64327 29.99C4.22153 30.2454 3.74983 30.376 3.27066 30.376ZM14.6193 19.9599L2.57019 26.412C2.21667 26.6009 1.96126 26.917 1.85061 27.3013C1.73915 27.6865 1.78741 28.09 1.98539 28.4385C2.1842 28.7863 2.50613 29.0333 2.89382 29.1348C3.28063 29.2346 3.68329 29.1772 4.02602 28.9701L15.7233 21.8999C15.4346 21.6553 15.1883 21.3608 14.9987 21.028C14.809 20.6953 14.6817 20.3326 14.6193 19.9599Z" fill="#CCBD99"/>
<path id="Trazado 309" d="M17.8213 22.6651C16.6933 22.6651 15.596 22.0762 14.9987 21.028C14.1144 19.474 14.6584 17.4908 16.2116 16.6065C16.4961 16.4442 16.8006 16.3269 17.1175 16.2571C17.397 16.1955 17.6774 16.3394 17.7922 16.5998C18.1191 17.3452 18.4926 18.0872 18.9011 18.8052C19.3104 19.5239 19.758 20.2244 20.2321 20.8857C20.3977 21.1161 20.3769 21.4323 20.1822 21.6394C19.9601 21.8773 19.7038 22.0795 19.4194 22.2409C18.9144 22.5279 18.3645 22.6651 17.8213 22.6651ZM16.9254 17.5773C16.8837 17.5981 16.8422 17.6197 16.8014 17.643C15.8189 18.202 15.4753 19.4557 16.0343 20.4381C16.5943 21.4198 17.8471 21.7642 18.8304 21.2043C18.8703 21.1811 18.9102 21.1569 18.9493 21.1311C18.5675 20.5713 18.2032 19.9898 17.8654 19.3958C17.5276 18.8018 17.2124 18.192 16.9254 17.5773Z" fill="#CCBD99"/>
<path id="Trazado 310" d="M36.1178 34.4282H1.19584C0.866339 34.4282 0.599365 34.1611 0.599365 33.8317C0.599365 33.5023 0.866339 33.236 1.19584 33.236H35.5214V31.8069C35.5214 31.6313 35.3791 31.4882 35.2028 31.4882H21.296C21.1205 31.4882 20.9782 31.6313 20.9782 31.8069C20.9782 32.1363 20.7112 32.4033 20.3817 32.4033C20.0523 32.4033 19.7853 32.1363 19.7853 31.8069C19.7853 30.9741 20.4633 30.2961 21.296 30.2961H35.2028C36.0363 30.2961 36.7143 30.9741 36.7143 31.8069V33.8317C36.7143 34.1611 36.4473 34.4282 36.1178 34.4282Z" fill="#CCBD99"/>
</g>
</svg>
