<svg width="33" height="37" viewBox="0 0 33 37" fill="none" xmlns="http://www.w3.org/2000/svg">
<g id="Grupo 2098">
<path id="Trazado 603" d="M30.229 32.8739H26.3106C25.9786 32.8739 25.7095 32.6048 25.7095 32.2729C25.7095 31.9409 25.9786 31.6718 26.3106 31.6718H29.6279V1.51151H14.3986L6.88781 7.25836V12.3144C6.88781 12.6464 6.61959 12.9155 6.28762 12.9155C5.9556 12.9155 5.68652 12.6464 5.68652 12.3144V6.96244C5.68652 6.77463 5.77371 6.59859 5.92207 6.48456L13.8301 0.433413C13.9341 0.353753 14.0632 0.310181 14.1948 0.310181H30.229C30.561 0.310181 30.8301 0.57926 30.8301 0.911275V32.2729C30.8301 32.6048 30.561 32.8739 30.229 32.8739Z" fill="#CCBD99"/>
<path id="Trazado 604" d="M17.9347 32.8739H6.28762C5.9556 32.8739 5.68652 32.6049 5.68652 32.2729V30.9047C5.68652 30.5727 5.9556 30.3036 6.28762 30.3036C6.61959 30.3036 6.88781 30.5727 6.88781 30.9047V31.6718H17.9347C18.2658 31.6718 18.535 31.9409 18.535 32.2729C18.535 32.6049 18.2658 32.8739 17.9347 32.8739Z" fill="#CCBD99"/>
<path id="Trazado 605" d="M14.1949 7.56272H6.28768C6.02944 7.56272 5.80141 7.39839 5.7184 7.1553C5.63625 6.91131 5.71758 6.64139 5.92213 6.4846L13.8303 0.433442C14.0122 0.29512 14.2561 0.272465 14.4615 0.372245C14.6661 0.473702 14.796 0.682443 14.796 0.911324V6.96249C14.796 7.29446 14.5269 7.56272 14.1949 7.56272ZM8.0616 6.36137H13.5938V2.12691L8.0616 6.36137Z" fill="#CCBD99"/>
<path id="Trazado 606" d="M21.4751 10.6209H15.0408C14.7088 10.6209 14.4397 10.3527 14.4397 10.0207C14.4397 9.6887 14.7088 9.41956 15.0408 9.41956H21.4751C21.807 9.41956 22.0762 9.6887 22.0762 10.0207C22.0762 10.3527 21.807 10.6209 21.4751 10.6209Z" fill="#CCBD99"/>
<path id="Trazado 607" d="M26.0911 14.0699H10.4258C10.0938 14.0699 9.82471 13.8008 9.82471 13.4688C9.82471 13.1368 10.0938 12.8685 10.4258 12.8685H26.0911C26.4231 12.8685 26.6922 13.1368 26.6922 13.4688C26.6922 13.8008 26.4231 14.0699 26.0911 14.0699Z" fill="#CCBD99"/>
<path id="Trazado 608" d="M32.3701 34.9128H26.3105C25.9786 34.9128 25.7095 34.6437 25.7095 34.3117C25.7095 33.9797 25.9786 33.7114 26.3105 33.7114H31.7699V3.55117H30.8301V32.2729C30.8301 32.6048 30.561 32.8739 30.2289 32.8739H26.3105C25.9786 32.8739 25.7095 32.6048 25.7095 32.2729C25.7095 31.9408 25.9786 31.6717 26.3105 31.6717H29.6279V2.95007C29.6279 2.6181 29.897 2.349 30.2289 2.349H32.3701C32.7021 2.349 32.9712 2.6181 32.9712 2.95007V34.3117C32.9712 34.6437 32.7021 34.9128 32.3701 34.9128Z" fill="#CCBD99"/>
<path id="Trazado 609" d="M17.9347 34.9128H8.42875C8.09674 34.9128 7.82764 34.6437 7.82764 34.3117V32.2728C7.82764 31.9409 8.09674 31.6718 8.42875 31.6718H17.9347C18.2659 31.6718 18.535 31.9409 18.535 32.2728C18.535 32.6048 18.2659 32.8739 17.9347 32.8739H9.02985V33.7114H17.9347C18.2659 33.7114 18.535 33.9797 18.535 34.3117C18.535 34.6437 18.2659 34.9128 17.9347 34.9128Z" fill="#CCBD99"/>
<path id="Trazado 610" d="M22.1224 30.7152C18.6198 30.7152 15.7703 27.8656 15.7703 24.363C15.7703 20.8604 18.6198 18.0109 22.1224 18.0109C25.625 18.0109 28.4746 20.8604 28.4746 24.363C28.4746 27.8656 25.625 30.7152 22.1224 30.7152ZM22.1224 19.2122C19.2821 19.2122 16.9717 21.5227 16.9717 24.363C16.9717 27.2033 19.2821 29.513 22.1224 29.513C24.9627 29.513 27.2732 27.2033 27.2732 24.363C27.2732 21.5227 24.9627 19.2122 22.1224 19.2122Z" fill="#CCBD99"/>
<path id="Trazado 611" d="M22.1222 27.8673C20.1898 27.8673 18.6179 26.2954 18.6179 24.363C18.6179 22.4306 20.1898 20.8579 22.1222 20.8579C24.0546 20.8579 25.6265 22.4306 25.6265 24.363C25.6265 26.2954 24.0546 27.8673 22.1222 27.8673ZM22.1222 22.0601C20.8521 22.0601 19.8193 23.0929 19.8193 24.363C19.8193 25.6322 20.8521 26.6659 22.1222 26.6659C23.3923 26.6659 24.4251 25.6322 24.4251 24.363C24.4251 23.0929 23.3923 22.0601 22.1222 22.0601Z" fill="#CCBD99"/>
<path id="Trazado 612" d="M26.3107 36.5978C26.2202 36.5978 26.1296 36.5777 26.0458 36.5366L22.1224 34.6126L18.1989 36.5366C18.0119 36.6289 17.7915 36.6171 17.6171 36.5073C17.441 36.3975 17.3337 36.2047 17.3337 35.9976V28.2965C17.3337 28.0501 17.4846 27.8279 17.7135 27.7382C17.9407 27.646 18.2031 27.7047 18.3724 27.8849C19.3592 28.9353 20.6904 29.513 22.1224 29.513C23.5542 29.513 24.8855 28.9353 25.8723 27.8849C26.0416 27.7047 26.3023 27.646 26.5312 27.7382C26.7609 27.8279 26.911 28.0501 26.911 28.2965V35.9976C26.911 36.2047 26.8045 36.3975 26.6284 36.5073C26.5312 36.5677 26.4214 36.5978 26.3107 36.5978ZM22.1224 33.3425C22.2129 33.3425 22.3034 33.3635 22.3872 33.4037L25.7096 35.0335V29.6027C24.6625 30.327 23.4259 30.7152 22.1224 30.7152C20.8187 30.7152 19.5821 30.327 18.535 29.6027V35.0335L21.8574 33.4037C21.9413 33.3635 22.0318 33.3425 22.1224 33.3425Z" fill="#CCBD99"/>
<path id="Trazado 613" d="M7.74217 29.2396C6.71269 29.2396 5.87521 28.4021 5.87521 27.3718C5.87521 26.8411 6.10156 26.3448 6.47962 25.9969L5.87353 24.622L4.38043 24.7847C4.26809 25.286 3.95119 25.7303 3.49177 25.9961C3.06004 26.2459 2.55617 26.3121 2.07415 26.1822C1.59208 26.0531 1.18967 25.7446 0.939849 25.312C0.690051 24.8794 0.623804 24.3764 0.752884 23.8952C0.882026 23.4131 1.19137 23.0099 1.6231 22.7609C2.08421 22.4951 2.62661 22.4432 3.11704 22.5974L4.00486 21.3843L3.11704 20.1721C2.62661 20.3247 2.08421 20.2744 1.6231 20.0078C0.731946 19.4939 0.425122 18.3495 0.939849 17.4575C1.18967 17.0249 1.59208 16.7156 2.07415 16.5865C2.55535 16.4565 3.0592 16.5228 3.49177 16.7734C3.95205 17.0392 4.26809 17.4827 4.38043 17.9849L5.87353 18.1475L6.47962 16.7726C6.10156 16.4247 5.87521 15.9284 5.87521 15.3969C5.87521 14.3674 6.71269 13.5291 7.74217 13.5291C8.7725 13.5291 9.61002 14.3674 9.61002 15.3969C9.61002 15.9284 9.38367 16.4247 9.00555 16.7726L9.6117 18.1475L11.1056 17.9849C11.2171 17.4827 11.534 17.0392 11.9943 16.7734C12.426 16.5245 12.9298 16.4582 13.4119 16.5865C13.8931 16.7156 14.2955 17.0249 14.5454 17.4575C14.7952 17.8893 14.8614 18.3923 14.7323 18.8743C14.6032 19.3564 14.2939 19.7588 13.8621 20.0086C13.4027 20.2744 12.8603 20.3272 12.369 20.1721L11.4804 21.3843L12.369 22.5974C12.8578 22.4432 13.401 22.4951 13.8621 22.7609C14.2939 23.0099 14.6032 23.4131 14.7323 23.8943C14.8614 24.3764 14.7952 24.8802 14.5454 25.312C14.2955 25.7437 13.8931 26.0531 13.4119 26.1822C12.929 26.3104 12.426 26.2459 11.9943 25.9952C11.534 25.7303 11.218 25.2868 11.1056 24.7847L9.6117 24.622L9.00555 25.9969C9.38367 26.3448 9.61002 26.8411 9.61002 27.3718C9.61002 28.4021 8.7725 29.2396 7.74217 29.2396ZM7.74302 26.5293C7.68101 26.629 7.59047 26.712 7.47474 26.7631C7.23247 26.8696 7.07652 27.1086 7.07652 27.3718C7.07652 27.739 7.37582 28.0382 7.74217 28.0382C8.10939 28.0382 8.40867 27.739 8.40867 27.3718C8.40867 27.1086 8.25192 26.8696 8.01131 26.7631C7.89562 26.712 7.80422 26.629 7.74302 26.5293ZM6.24659 23.3763C6.48217 23.3763 6.69846 23.5154 6.79568 23.7342L7.74217 25.8829L8.68951 23.735C8.79515 23.4953 9.04581 23.3461 9.30401 23.3804L11.638 23.6336L10.2514 21.7398C10.0971 21.5285 10.0971 21.241 10.2514 21.0297L11.6388 19.1359L9.30401 19.3891C9.04497 19.4226 8.79515 19.2742 8.68951 19.0344L7.74217 16.8866L6.79568 19.0344C6.69008 19.2742 6.43686 19.4234 6.18118 19.3891L3.8464 19.1359L5.23384 21.0297C5.38811 21.241 5.38811 21.5285 5.23384 21.7398L3.84724 23.6336L6.18118 23.3804C6.20297 23.3771 6.22477 23.3763 6.24659 23.3763ZM2.55617 23.7124C2.4422 23.7124 2.32733 23.7417 2.22336 23.8013C2.06996 23.8901 1.96012 24.0335 1.91402 24.2054C1.86793 24.3772 1.89138 24.5575 1.98026 24.7109C2.0691 24.8651 2.21332 24.9758 2.38519 25.0219C2.55617 25.0672 2.73643 25.0446 2.8907 24.9549C3.11872 24.8232 3.24784 24.5692 3.21848 24.306C3.20507 24.181 3.23105 24.0603 3.28722 23.9572C3.16986 23.9539 3.05251 23.9161 2.95106 23.8415C2.83367 23.756 2.69535 23.7124 2.55617 23.7124ZM12.198 23.9572C12.2533 24.0603 12.2793 24.1802 12.2667 24.306C12.2374 24.5684 12.3665 24.8232 12.5945 24.9549C12.7496 25.0446 12.9298 25.0672 13.1 25.0219C13.2719 24.9758 13.4161 24.866 13.5049 24.7109C13.5938 24.5575 13.6173 24.3772 13.572 24.2054C13.5251 24.0335 13.4153 23.8901 13.261 23.8013C13.033 23.6688 12.7471 23.6864 12.535 23.8415C12.4327 23.9161 12.3153 23.9539 12.198 23.9572ZM12.198 18.8123C12.3153 18.8156 12.4327 18.8534 12.5342 18.928C12.7479 19.0839 13.0321 19.0998 13.2602 18.9682C13.4153 18.8785 13.5251 18.7352 13.572 18.5633C13.6173 18.3914 13.5938 18.2121 13.5049 18.0578C13.4161 17.9035 13.2719 17.7937 13.1 17.7468C12.9298 17.7023 12.7496 17.725 12.5945 17.8138C12.3665 17.9455 12.2374 18.2003 12.2667 18.4635C12.2793 18.5884 12.2533 18.7092 12.198 18.8123ZM2.5587 17.725C2.50084 17.725 2.4422 17.7325 2.38519 17.7468C2.21332 17.7937 2.0691 17.9035 1.98026 18.0578C1.89138 18.2121 1.86793 18.3914 1.91402 18.5633C1.96012 18.7352 2.06996 18.8785 2.22419 18.9674C2.45222 19.0998 2.73728 19.0839 2.95106 18.928C3.05333 18.8534 3.16986 18.8156 3.28722 18.8123C3.23105 18.7092 3.20507 18.5884 3.21848 18.4627C3.24784 18.2003 3.11872 17.9455 2.8907 17.8147C2.78756 17.7543 2.67355 17.725 2.5587 17.725ZM7.74217 14.7312C7.37582 14.7312 7.07652 15.0297 7.07652 15.3969C7.07652 15.6601 7.23247 15.899 7.47474 16.0064C7.59047 16.0575 7.68101 16.1405 7.74302 16.2394C7.80422 16.1405 7.89562 16.0575 8.01131 16.0064C8.25192 15.8999 8.40867 15.6601 8.40867 15.3969C8.40867 15.0297 8.10939 14.7312 7.74217 14.7312Z" fill="#CCBD99"/>
</g>
</svg>
