<svg width="34" height="39" viewBox="0 0 34 39" fill="none" xmlns="http://www.w3.org/2000/svg">
<g id="Grupo 2087">
<path id="Trazado 490" d="M16.5296 38.167C7.42928 38.167 0.0258789 30.7636 0.0258789 21.6633C0.0258789 21.328 0.297693 21.0562 0.632177 21.0562H32.4271C32.7624 21.0562 33.0342 21.328 33.0342 21.6633C33.0342 30.7636 25.6308 38.167 16.5296 38.167ZM1.25117 22.2704C1.57126 30.4216 8.30231 36.9536 16.5296 36.9536C24.7578 36.9536 31.4888 30.4216 31.8089 22.2704H1.25117Z" fill="#CCBD99"/>
<path id="Trazado 491" d="M16.5296 29.8906C7.27517 29.8906 0.0258789 26.2765 0.0258789 21.6633C0.0258789 21.328 0.297693 21.0562 0.632177 21.0562H32.4271C32.7624 21.0562 33.0342 21.328 33.0342 21.6633C33.0342 26.2765 25.7849 29.8906 16.5296 29.8906ZM1.29944 22.2704C1.9955 25.7998 8.68675 28.6763 16.5296 28.6763C24.3734 28.6763 31.0646 25.7998 31.7607 22.2704H1.29944Z" fill="#CCBD99"/>
<path id="Trazado 492" d="M16.5297 38.167C11.9164 38.167 8.30322 30.9178 8.30322 21.6633C8.30322 21.328 8.57504 21.0562 8.90952 21.0562H24.1499C24.4852 21.0562 24.757 21.328 24.757 21.6633C24.757 30.9178 21.143 38.167 16.5297 38.167ZM9.52259 22.2704C9.67416 30.2911 12.8216 36.9536 16.5297 36.9536C20.2386 36.9536 23.3861 30.2911 23.5376 22.2704H9.52259Z" fill="#CCBD99"/>
<path id="Trazado 493" d="M16.5297 4.51696C15.4509 4.51696 14.5728 3.63885 14.5728 2.55922C14.5728 1.47955 15.4509 0.60144 16.5297 0.60144C17.6093 0.60144 18.4874 1.47955 18.4874 2.55922C18.4874 3.63885 17.6093 4.51696 16.5297 4.51696ZM16.5297 1.81485C16.1198 1.81485 15.7862 2.1485 15.7862 2.55922C15.7862 2.96989 16.1198 3.30354 16.5297 3.30354C16.9403 3.30354 17.274 2.96989 17.274 2.55922C17.274 2.1485 16.9403 1.81485 16.5297 1.81485Z" fill="#CCBD99"/>
<path id="Trazado 494" d="M16.5296 6.16389C16.1952 6.16389 15.9233 5.89289 15.9233 5.5576V3.90975C15.9233 3.57443 16.1952 3.30347 16.5296 3.30347C16.865 3.30347 17.1368 3.57443 17.1368 3.90975V5.5576C17.1368 5.89289 16.865 6.16389 16.5296 6.16389Z" fill="#CCBD99"/>
<path id="Trazado 495" d="M18.1699 19.9614H14.8903C14.555 19.9614 14.2832 19.6896 14.2832 19.3543V7.19793C14.2832 5.95908 15.2909 4.95056 16.5297 4.95056C17.7694 4.95056 18.7771 5.95908 18.7771 7.19793V19.3543C18.7771 19.6896 18.5052 19.9614 18.1699 19.9614ZM15.4966 18.7471H17.5636V7.19793C17.5636 6.62806 17.0996 6.16402 16.5297 6.16402C15.9607 6.16402 15.4966 6.62806 15.4966 7.19793V18.7471Z" fill="#CCBD99"/>
<path id="Trazado 496" d="M26.7673 20.1475C24.3032 20.1475 22.2988 18.1432 22.2988 15.679C22.2988 15.3437 22.5706 15.0728 22.906 15.0728H30.6294C30.9639 15.0728 31.2357 15.3437 31.2357 15.679C31.2357 18.1432 29.2314 20.1475 26.7673 20.1475ZM23.569 16.2862C23.8544 17.7917 25.1804 18.9341 26.7673 18.9341C28.355 18.9341 29.6802 17.7917 29.9656 16.2862H23.569Z" fill="#CCBD99"/>
<path id="Trazado 497" d="M29.653 16.2863C29.4015 16.2863 29.167 16.1288 29.0798 15.8781L26.7672 9.20629L24.4547 15.8781C24.3454 16.1948 23.9999 16.365 23.6832 16.2524C23.3665 16.1431 23.198 15.7977 23.3081 15.481L26.1939 7.15372C26.2786 6.90987 26.509 6.74561 26.7672 6.74561C27.0263 6.74561 27.2558 6.90987 27.3405 7.15372L30.2263 15.481C30.3364 15.7977 30.1687 16.1431 29.852 16.2524C29.786 16.2761 29.7191 16.2863 29.653 16.2863Z" fill="#CCBD99"/>
<path id="Trazado 498" d="M6.29208 20.1475C3.8288 20.1475 1.82446 18.1432 1.82446 15.679C1.82446 15.3437 2.09543 15.0728 2.43077 15.0728H10.1542C10.4887 15.0728 10.7605 15.3437 10.7605 15.679C10.7605 18.1432 8.75621 20.1475 6.29208 20.1475ZM3.09463 16.2862C3.38 17.7917 4.70521 18.9341 6.29208 18.9341C7.87979 18.9341 9.20501 17.7917 9.49036 16.2862H3.09463Z" fill="#CCBD99"/>
<path id="Trazado 499" d="M9.17871 16.2863C8.92636 16.2863 8.6918 16.1288 8.60459 15.8781L6.29203 9.20629L3.98032 15.8781C3.87024 16.1948 3.52475 16.365 3.20806 16.2524C2.89136 16.1431 2.7237 15.7977 2.83293 15.481L5.71876 7.15372C5.80344 6.90987 6.03376 6.74561 6.29203 6.74561C6.55114 6.74561 6.78147 6.90987 6.86614 7.15372L9.75197 15.481C9.86122 15.7977 9.69354 16.1431 9.37684 16.2524C9.31165 16.2761 9.24391 16.2863 9.17871 16.2863Z" fill="#CCBD99"/>
<path id="Trazado 500" d="M19.7431 22.2705H13.3169C12.9815 22.2705 12.7097 21.9987 12.7097 21.6634V19.3542C12.7097 19.0189 12.9815 18.7471 13.3169 18.7471H19.7431C20.0784 18.7471 20.3494 19.0189 20.3494 19.3542V21.6634C20.3494 21.9987 20.0784 22.2705 19.7431 22.2705ZM13.924 21.0562H19.1359V19.9613H13.924V21.0562Z" fill="#CCBD99"/>
<path id="Trazado 501" d="M26.7673 7.9599C26.7563 7.9599 18.1589 7.80491 18.1589 7.80491C17.8244 7.79817 17.5577 7.52211 17.5636 7.18681C17.5695 6.85146 17.8507 6.58813 18.1809 6.59064L24.2811 6.70075L17.5933 3.09346C17.2977 2.93427 17.1876 2.5659 17.3468 2.27122C17.506 1.9757 17.8744 1.86564 18.1691 2.02481L27.0552 6.81844C27.3016 6.95138 27.4252 7.23588 27.3541 7.50686C27.2847 7.77359 27.0425 7.9599 26.7673 7.9599Z" fill="#CCBD99"/>
<path id="Trazado 502" d="M6.29207 7.96002C6.01687 7.96002 5.77553 7.77371 5.70525 7.50698C5.63412 7.236 5.75775 6.9515 6.00416 6.81855L14.8911 2.02493C15.185 1.86659 15.5542 1.97582 15.7133 2.27133C15.8725 2.56685 15.7625 2.93438 15.4669 3.09358L8.77906 6.70086L14.8793 6.59076C15.2027 6.58908 15.4906 6.85158 15.4966 7.18692C15.5025 7.52223 15.2358 7.79828 14.9004 7.80503L6.30308 7.96002H6.29207Z" fill="#CCBD99"/>
<path id="Trazado 503" d="M29.653 7.95988H26.7672C26.4319 7.95988 26.1609 7.68804 26.1609 7.35273C26.1609 7.01738 26.4319 6.74561 26.7672 6.74561H29.653C29.9883 6.74561 30.2601 7.01738 30.2601 7.35273C30.2601 7.68804 29.9883 7.95988 29.653 7.95988Z" fill="#CCBD99"/>
<path id="Trazado 504" d="M6.29217 7.95988H3.4072C3.07186 7.95988 2.80005 7.68804 2.80005 7.35273C2.80005 7.01738 3.07186 6.74561 3.4072 6.74561H6.29217C6.62751 6.74561 6.89932 7.01738 6.89932 7.35273C6.89932 7.68804 6.62751 7.95988 6.29217 7.95988Z" fill="#CCBD99"/>
</g>
</svg>
