<svg width="11" height="10" viewBox="0 0 11 10" fill="none" xmlns="http://www.w3.org/2000/svg">
<path id="Icon awesome-phone-alt" d="M9.85244 6.68862L7.80054 5.80923C7.62047 5.73249 7.41136 5.78402 7.28757 5.93564L6.37887 7.04587C4.95275 6.37347 3.80505 5.22577 3.13265 3.79965L4.24288 2.89095C4.39483 2.76737 4.44642 2.55801 4.36929 2.37798L3.4899 0.326078C3.40491 0.131219 3.19339 0.0243044 2.98609 0.0714228L1.08075 0.511116C0.881244 0.557186 0.739944 0.734874 0.73999 0.939633C0.73999 5.63885 4.54883 9.44036 9.24072 9.44036C9.44555 9.44049 9.62333 9.29917 9.66942 9.0996L10.1091 7.19426C10.1559 6.98597 10.0482 6.77378 9.85244 6.68862Z" fill="#B79D5B"/>
</svg>
