<svg width="8" height="8" viewBox="0 0 8 8" fill="none" xmlns="http://www.w3.org/2000/svg">
<path id="Icon ionic-ios-star" d="M7.59373 3.14481H5.27505L4.57046 1.04208C4.53578 0.939627 4.43963 0.875 4.33087 0.875C4.22211 0.875 4.12596 0.939627 4.09128 1.04208L3.38669 3.14481H1.05225C0.913539 3.14481 0.800049 3.25831 0.800049 3.39702C0.800049 3.4112 0.801625 3.42696 0.804778 3.43957C0.80793 3.49474 0.83315 3.55622 0.910387 3.61769L2.81609 4.96067L2.0847 7.08704C2.04845 7.1895 2.0847 7.30456 2.1714 7.37077C2.21711 7.40387 2.25967 7.43224 2.31326 7.43224C2.36527 7.43224 2.42675 7.40544 2.47088 7.3755L4.33087 6.04986L6.19086 7.3755C6.23499 7.40702 6.29647 7.43224 6.34848 7.43224C6.40208 7.43224 6.44463 7.40544 6.48877 7.37077C6.57704 7.30456 6.61172 7.19107 6.57546 7.08704L5.84408 4.96067L7.73402 3.60508L7.77973 3.56568C7.82071 3.52154 7.86169 3.46164 7.86169 3.39702C7.86169 3.25831 7.73244 3.14481 7.59373 3.14481Z" fill="#B79D5B"/>
</svg>
