<svg width="10" height="10" viewBox="0 0 10 10" fill="none" xmlns="http://www.w3.org/2000/svg">
<path id="Icon awesome-phone-alt" d="M9.55727 7.03816L7.50537 6.15878C7.32531 6.08204 7.11619 6.13357 6.9924 6.28519L6.0837 7.39542C4.65758 6.72302 3.50989 5.57532 2.83749 4.1492L3.94771 3.2405C4.09966 3.11692 4.15125 2.90756 4.07412 2.72753L3.19474 0.675627C3.10974 0.480767 2.89822 0.373853 2.69092 0.420971L0.785586 0.860664C0.586078 0.906735 0.444778 1.08442 0.444824 1.28918C0.444824 5.9884 4.25366 9.78991 8.94555 9.78991C9.15038 9.79004 9.32817 9.64872 9.37425 9.44915L9.81395 7.54381C9.86076 7.33551 9.75305 7.12332 9.55727 7.03816Z" fill="black"/>
</svg>
